<svg width="24" height="25" viewBox="0 0 24 25" fill="none" xmlns="http://www.w3.org/2000/svg">
<path d="M19 4.625H18V3.625C18 3.075 17.55 2.625 17 2.625C16.45 2.625 16 3.075 16 3.625V4.625H8V3.625C8 3.075 7.55 2.625 7 2.625C6.45 2.625 6 3.075 6 3.625V4.625H5C3.89 4.625 3.01 5.525 3.01 6.625L3 20.625C3 21.1554 3.21071 21.6641 3.58579 22.0392C3.96086 22.4143 4.46957 22.625 5 22.625H19C20.1 22.625 21 21.725 21 20.625V6.625C21 5.525 20.1 4.625 19 4.625ZM19 10.625V20.625H5V10.625H19ZM8 12.625C8.55 12.625 9 13.075 9 13.625C9 14.175 8.55 14.625 8 14.625C7.45 14.625 7 14.175 7 13.625C7 13.075 7.45 12.625 8 12.625ZM12 12.625C12.55 12.625 13 13.075 13 13.625C13 14.175 12.55 14.625 12 14.625C11.45 14.625 11 14.175 11 13.625C11 13.075 11.45 12.625 12 12.625ZM16 12.625C16.55 12.625 17 13.075 17 13.625C17 14.175 16.55 14.625 16 14.625C15.45 14.625 15 14.175 15 13.625C15 13.075 15.45 12.625 16 12.625Z" fill="#717171"/>
</svg>
